<svg width="1110" height="409" viewBox="0 0 1110 409" fill="none" xmlns="http://www.w3.org/2000/svg">
<rect y="39" width="1110" height="370" rx="20" fill="#063183"/>
<mask id="mask0_2_373" style="mask-type:alpha" maskUnits="userSpaceOnUse" x="0" y="0" width="1110" height="409">
<rect width="1110" height="409" rx="20" fill="#063183"/>
</mask>
<g mask="url(#mask0_2_373)">
<g clip-path="url(#clip0_2_373)">
<path d="M888.978 105.188H886.575V39.196C886.575 29.0658 882.561 19.3505 875.415 12.1874C868.269 5.02422 858.578 1.00001 848.473 1H708.998C698.892 1 689.201 5.02421 682.055 12.1874C674.91 19.3505 670.895 29.0658 670.895 39.196V401.241C670.895 411.371 674.91 421.086 682.055 428.249C689.201 435.413 698.892 439.437 708.998 439.437H848.473C858.578 439.437 868.269 435.412 875.415 428.249C882.56 421.086 886.574 411.371 886.574 401.241V152.163H888.977L888.978 105.188Z" fill="#F4F4F4"/>
<path d="M850.01 10.9336H831.805C832.642 12.9914 832.962 15.2241 832.736 17.4349C832.509 19.6457 831.744 21.7668 830.507 23.6113C829.271 25.4558 827.601 26.9671 825.644 28.012C823.687 29.0569 821.504 29.6034 819.287 29.6033H739.384C737.167 29.6032 734.984 29.0566 733.028 28.0116C731.071 26.9666 729.401 25.4553 728.164 23.6108C726.928 21.7663 726.163 19.6453 725.937 17.4346C725.71 15.2239 726.03 12.9913 726.867 10.9336H709.863C702.316 10.9336 695.079 13.9388 689.743 19.2882C684.406 24.6376 681.409 31.8929 681.409 39.458V400.977C681.409 408.542 684.406 415.797 689.743 421.147C695.079 426.496 702.316 429.501 709.863 429.501H850.01C857.556 429.501 864.794 426.496 870.13 421.147C875.466 415.797 878.464 408.542 878.464 400.977V39.4574C878.464 31.8924 875.466 24.6372 870.13 19.288C864.794 13.9387 857.556 10.9336 850.01 10.9336H850.01Z" fill="white"/>
<path d="M779.936 224.779C766.877 224.779 754.112 220.897 743.254 213.624C732.396 206.351 723.933 196.014 718.936 183.92C713.939 171.826 712.631 158.517 715.179 145.678C717.726 132.839 724.015 121.045 733.248 111.789C742.482 102.532 754.247 96.2283 767.055 93.6744C779.862 91.1205 793.138 92.4313 805.203 97.4409C817.267 102.451 827.579 110.934 834.834 121.819C842.089 132.703 845.961 145.5 845.961 158.591C845.941 176.139 838.979 192.962 826.601 205.371C814.223 217.779 797.441 224.759 779.936 224.779ZM779.936 93.6633C767.126 93.6633 754.603 97.4713 743.952 104.606C733.301 111.74 725 121.88 720.098 133.744C715.196 145.608 713.913 158.663 716.412 171.257C718.911 183.852 725.08 195.421 734.138 204.501C743.196 213.582 754.736 219.765 767.3 222.271C779.864 224.776 792.886 223.49 804.721 218.576C816.556 213.662 826.671 205.34 833.788 194.662C840.905 183.985 844.704 171.432 844.704 158.591C844.684 141.377 837.854 124.874 825.712 112.702C813.57 100.53 797.107 93.6828 779.936 93.6633Z" fill="#3F3D56"/>
<path d="M804.186 139.363C809.841 134.573 813.276 127.007 812.375 119.64C811.474 112.274 805.895 105.503 798.658 103.938C791.422 102.374 783.172 106.704 780.974 113.791C779.764 100.128 778.37 85.8927 771.124 74.2576C764.563 63.7222 753.199 56.1838 740.883 54.8352C728.566 53.4865 715.599 58.5802 707.918 68.3251C700.237 78.0701 698.356 92.2372 703.736 103.425C707.699 111.667 715 117.801 722.65 122.791C747.056 138.711 777.331 144.09 806.139 139.84L804.186 139.363Z" fill="#CFDEF3"/>
<path d="M720.097 58.8625C730.259 67.1603 739.582 76.4407 747.931 86.5696C760.996 102.367 771.569 120.079 779.281 139.088C779.845 140.474 777.599 141.078 777.041 139.707C764.423 108.813 744.28 81.5838 718.454 60.5092C717.294 59.5625 718.947 57.9237 720.097 58.8625Z" fill="white"/>
<path d="M723.555 289.706C727.376 289.706 730.472 286.602 730.472 282.772C730.472 278.943 727.376 275.838 723.555 275.838C719.735 275.838 716.638 278.943 716.638 282.772C716.638 286.602 719.735 289.706 723.555 289.706Z" fill="#17275F"/>
<path d="M838.203 287.815H750.169C748.835 287.815 747.556 287.284 746.612 286.338C745.669 285.392 745.139 284.11 745.139 282.772C745.139 281.435 745.669 280.152 746.612 279.206C747.556 278.261 748.835 277.729 750.169 277.729H838.203C839.538 277.729 840.817 278.261 841.76 279.206C842.704 280.152 843.234 281.435 843.234 282.772C843.234 284.11 842.704 285.392 841.76 286.338C840.817 287.284 839.538 287.815 838.203 287.815Z" fill="#DAE9FF"/>
<path d="M810.9 287.876H749.806C748.456 287.876 747.161 287.338 746.206 286.381C745.251 285.424 744.715 284.126 744.715 282.772C744.715 281.419 745.251 280.12 746.206 279.163C747.161 278.206 748.456 277.668 749.806 277.668H810.9C812.25 277.668 813.545 278.206 814.5 279.163C815.455 280.12 815.991 281.419 815.991 282.772C815.991 284.126 815.455 285.424 814.5 286.381C813.545 287.338 812.25 287.876 810.9 287.876Z" fill="#5784F5"/>
<path d="M723.555 319.963C727.376 319.963 730.472 316.859 730.472 313.029C730.472 309.2 727.376 306.095 723.555 306.095C719.735 306.095 716.638 309.2 716.638 313.029C716.638 316.859 719.735 319.963 723.555 319.963Z" fill="#17275F"/>
<path d="M838.203 318.072H750.169C748.835 318.072 747.556 317.541 746.612 316.595C745.669 315.65 745.139 314.367 745.139 313.029C745.139 311.692 745.669 310.409 746.612 309.464C747.556 308.518 748.835 307.987 750.169 307.987H838.203C839.538 307.987 840.817 308.518 841.76 309.464C842.704 310.409 843.234 311.692 843.234 313.029C843.234 314.367 842.704 315.65 841.76 316.595C840.817 317.541 839.538 318.072 838.203 318.072Z" fill="#DAE9FF"/>
<path d="M723.555 350.221C727.376 350.221 730.472 347.117 730.472 343.287C730.472 339.457 727.376 336.353 723.555 336.353C719.735 336.353 716.638 339.457 716.638 343.287C716.638 347.117 719.735 350.221 723.555 350.221Z" fill="#17275F"/>
<path d="M838.203 348.33H750.169C748.835 348.33 747.556 347.799 746.612 346.853C745.669 345.907 745.139 344.625 745.139 343.287C745.139 341.95 745.669 340.667 746.612 339.721C747.556 338.775 748.835 338.244 750.169 338.244H838.203C839.538 338.244 840.817 338.775 841.76 339.721C842.704 340.667 843.234 341.95 843.234 343.287C843.234 344.625 842.704 345.907 841.76 346.853C840.817 347.799 839.538 348.33 838.203 348.33Z" fill="#DAE9FF"/>
<path d="M790.778 318.133H749.806C748.456 318.133 747.161 317.596 746.206 316.639C745.251 315.681 744.715 314.383 744.715 313.03C744.715 311.676 745.251 310.378 746.206 309.421C747.161 308.464 748.456 307.926 749.806 307.926H790.778C792.128 307.926 793.423 308.464 794.378 309.421C795.333 310.378 795.869 311.676 795.869 313.03C795.869 314.383 795.333 315.681 794.378 316.639C793.423 317.596 792.128 318.133 790.778 318.133Z" fill="#5784F5"/>
<path d="M827.249 348.391H749.806C748.456 348.391 747.161 347.853 746.206 346.896C745.251 345.939 744.715 344.64 744.715 343.287C744.715 341.933 745.251 340.635 746.206 339.678C747.161 338.721 748.456 338.183 749.806 338.183H827.249C828.599 338.183 829.894 338.721 830.849 339.678C831.804 340.635 832.34 341.933 832.34 343.287C832.34 344.64 831.804 345.939 830.849 346.896C829.894 347.853 828.599 348.391 827.249 348.391Z" fill="#5784F5"/>
<path d="M814.894 148.299H806.251V122.697C806.252 121.945 806.55 121.224 807.081 120.692C807.611 120.161 808.33 119.861 809.081 119.861H812.064C812.814 119.861 813.533 120.161 814.064 120.692C814.594 121.224 814.893 121.945 814.894 122.697V148.299Z" fill="#3F3D56"/>
<path d="M820.133 191.865H737.52L737.223 145.189C737.22 144.468 737.361 143.754 737.639 143.088C737.916 142.423 738.324 141.821 738.838 141.316L759.592 121.053C760.576 120.088 761.895 119.543 763.272 119.533L798.006 119.215C798.794 119.21 799.573 119.379 800.288 119.709C801.004 120.039 801.638 120.522 802.147 121.125L802.15 121.129L818.648 141.411C819.607 142.593 820.132 144.07 820.133 145.594L820.133 191.865Z" fill="#161B3D"/>
<path d="M820.134 191.865H775.738V150.034C775.738 148.759 776.191 147.527 777.016 146.557L796.306 123.886V123.886C796.807 123.296 797.43 122.822 798.132 122.497C798.834 122.172 799.599 122.004 800.372 122.005H800.392C801.169 122.007 801.936 122.18 802.639 122.51C803.343 122.84 803.966 123.32 804.465 123.917L818.882 141.122C819.69 142.088 820.133 143.308 820.134 144.568V191.865Z" fill="#7398F6"/>
<path d="M801.301 175.798H794.878C794.461 175.798 794.062 175.632 793.767 175.336C793.472 175.041 793.306 174.64 793.306 174.222V168.824C793.306 168.406 793.472 168.005 793.767 167.71C794.062 167.414 794.461 167.248 794.878 167.248H801.301C801.718 167.248 802.118 167.414 802.412 167.71C802.707 168.005 802.873 168.406 802.873 168.824V174.222C802.873 174.64 802.707 175.041 802.412 175.336C802.118 175.632 801.718 175.798 801.301 175.798Z" fill="white"/>
<path d="M801.301 161.964H794.878C794.461 161.964 794.062 161.798 793.767 161.502C793.472 161.207 793.306 160.806 793.306 160.388V155.115C793.306 154.697 793.472 154.297 793.767 154.001C794.062 153.706 794.461 153.54 794.878 153.539H801.301C801.718 153.54 802.118 153.706 802.412 154.001C802.707 154.297 802.873 154.697 802.873 155.115V160.388C802.873 160.806 802.707 161.207 802.412 161.502C802.118 161.798 801.718 161.964 801.301 161.964Z" fill="white"/>
<path d="M761.578 173.696H755.155C754.738 173.696 754.339 173.53 754.044 173.234C753.749 172.939 753.583 172.538 753.583 172.121V166.722C753.583 166.304 753.749 165.904 754.044 165.608C754.339 165.313 754.738 165.147 755.155 165.146H761.578C761.995 165.147 762.395 165.313 762.689 165.608C762.984 165.904 763.15 166.304 763.15 166.722V172.121C763.15 172.538 762.984 172.939 762.689 173.234C762.395 173.53 761.995 173.696 761.578 173.696Z" fill="white"/>
<path d="M761.578 159.862H755.155C754.738 159.862 754.339 159.696 754.044 159.4C753.749 159.105 753.583 158.704 753.583 158.286V153.014C753.583 152.596 753.749 152.195 754.044 151.9C754.339 151.604 754.738 151.438 755.155 151.438H761.578C761.995 151.438 762.395 151.604 762.689 151.9C762.984 152.195 763.15 152.596 763.15 153.014V158.286C763.15 158.704 762.984 159.105 762.689 159.4C762.395 159.696 761.995 159.862 761.578 159.862Z" fill="white"/>
<path d="M836.121 192.411H723.749C723.583 192.411 723.423 192.345 723.305 192.226C723.187 192.108 723.121 191.948 723.121 191.781C723.121 191.614 723.187 191.453 723.305 191.335C723.423 191.217 723.583 191.15 723.749 191.15H836.121C836.288 191.15 836.448 191.217 836.566 191.335C836.684 191.453 836.75 191.614 836.75 191.781C836.75 191.948 836.684 192.108 836.566 192.226C836.448 192.345 836.288 192.411 836.121 192.411Z" fill="#3F3D56"/>
</g>
</g>
<rect x="80" y="249" width="151" height="50" rx="12" fill="white"/>
<path d="M126.408 278.091C125.801 278.091 125.255 277.987 124.77 277.779C124.284 277.562 123.903 277.259 123.626 276.869C123.348 276.479 123.21 276.024 123.21 275.504H124.796C124.83 275.894 124.982 276.215 125.251 276.466C125.528 276.717 125.914 276.843 126.408 276.843C126.919 276.843 127.318 276.722 127.604 276.479C127.89 276.228 128.033 275.907 128.033 275.517C128.033 275.214 127.942 274.967 127.76 274.776C127.586 274.585 127.365 274.438 127.097 274.334C126.837 274.23 126.473 274.117 126.005 273.996C125.415 273.84 124.934 273.684 124.562 273.528C124.198 273.363 123.886 273.112 123.626 272.774C123.366 272.436 123.236 271.985 123.236 271.422C123.236 270.902 123.366 270.447 123.626 270.057C123.886 269.667 124.25 269.368 124.718 269.16C125.186 268.952 125.727 268.848 126.343 268.848C127.218 268.848 127.933 269.069 128.488 269.511C129.051 269.944 129.363 270.542 129.424 271.305H127.786C127.76 270.976 127.604 270.694 127.318 270.46C127.032 270.226 126.655 270.109 126.187 270.109C125.762 270.109 125.415 270.217 125.147 270.434C124.878 270.651 124.744 270.963 124.744 271.37C124.744 271.647 124.826 271.877 124.991 272.059C125.164 272.232 125.381 272.371 125.641 272.475C125.901 272.579 126.256 272.692 126.707 272.813C127.305 272.978 127.79 273.142 128.163 273.307C128.544 273.472 128.865 273.727 129.125 274.074C129.393 274.412 129.528 274.867 129.528 275.439C129.528 275.898 129.402 276.332 129.151 276.739C128.908 277.146 128.548 277.476 128.072 277.727C127.604 277.97 127.049 278.091 126.408 278.091ZM137.763 270.837V278H136.281V277.155C136.047 277.45 135.74 277.684 135.358 277.857C134.986 278.022 134.587 278.104 134.162 278.104C133.599 278.104 133.092 277.987 132.641 277.753C132.199 277.519 131.848 277.172 131.588 276.713C131.337 276.254 131.211 275.699 131.211 275.049V270.837H132.68V274.828C132.68 275.469 132.841 275.963 133.161 276.31C133.482 276.648 133.92 276.817 134.474 276.817C135.029 276.817 135.467 276.648 135.787 276.31C136.117 275.963 136.281 275.469 136.281 274.828V270.837H137.763ZM141.201 271.903C141.452 271.556 141.794 271.275 142.228 271.058C142.67 270.833 143.159 270.72 143.697 270.72C144.329 270.72 144.901 270.872 145.413 271.175C145.924 271.478 146.327 271.912 146.622 272.475C146.916 273.03 147.064 273.667 147.064 274.386C147.064 275.105 146.916 275.751 146.622 276.323C146.327 276.886 145.92 277.328 145.4 277.649C144.888 277.961 144.321 278.117 143.697 278.117C143.142 278.117 142.648 278.009 142.215 277.792C141.79 277.575 141.452 277.298 141.201 276.96V278H139.719V268.38H141.201V271.903ZM145.556 274.386C145.556 273.892 145.452 273.467 145.244 273.112C145.044 272.748 144.776 272.475 144.438 272.293C144.108 272.102 143.753 272.007 143.372 272.007C142.999 272.007 142.644 272.102 142.306 272.293C141.976 272.484 141.708 272.761 141.5 273.125C141.3 273.489 141.201 273.918 141.201 274.412C141.201 274.906 141.3 275.339 141.5 275.712C141.708 276.076 141.976 276.353 142.306 276.544C142.644 276.735 142.999 276.83 143.372 276.83C143.753 276.83 144.108 276.735 144.438 276.544C144.776 276.345 145.044 276.059 145.244 275.686C145.452 275.313 145.556 274.88 145.556 274.386ZM151.129 278.117C150.566 278.117 150.059 278.017 149.608 277.818C149.166 277.61 148.815 277.333 148.555 276.986C148.295 276.631 148.157 276.236 148.139 275.803H149.673C149.699 276.106 149.842 276.362 150.102 276.57C150.371 276.769 150.705 276.869 151.103 276.869C151.519 276.869 151.84 276.791 152.065 276.635C152.299 276.47 152.416 276.262 152.416 276.011C152.416 275.742 152.286 275.543 152.026 275.413C151.775 275.283 151.372 275.14 150.817 274.984C150.28 274.837 149.842 274.694 149.504 274.555C149.166 274.416 148.872 274.204 148.62 273.918C148.378 273.632 148.256 273.255 148.256 272.787C148.256 272.406 148.369 272.059 148.594 271.747C148.82 271.426 149.14 271.175 149.556 270.993C149.981 270.811 150.466 270.72 151.012 270.72C151.827 270.72 152.481 270.928 152.975 271.344C153.478 271.751 153.747 272.31 153.781 273.021H152.299C152.273 272.7 152.143 272.445 151.909 272.254C151.675 272.063 151.359 271.968 150.96 271.968C150.57 271.968 150.271 272.042 150.063 272.189C149.855 272.336 149.751 272.531 149.751 272.774C149.751 272.965 149.821 273.125 149.959 273.255C150.098 273.385 150.267 273.489 150.466 273.567C150.666 273.636 150.96 273.727 151.35 273.84C151.87 273.979 152.295 274.122 152.624 274.269C152.962 274.408 153.253 274.616 153.495 274.893C153.738 275.17 153.864 275.539 153.872 275.998C153.872 276.405 153.76 276.769 153.534 277.09C153.309 277.411 152.988 277.662 152.572 277.844C152.165 278.026 151.684 278.117 151.129 278.117ZM154.98 274.412C154.98 273.675 155.127 273.03 155.422 272.475C155.725 271.912 156.141 271.478 156.67 271.175C157.198 270.872 157.805 270.72 158.49 270.72C159.356 270.72 160.071 270.928 160.635 271.344C161.207 271.751 161.592 272.336 161.792 273.099H160.193C160.063 272.744 159.855 272.466 159.569 272.267C159.283 272.068 158.923 271.968 158.49 271.968C157.883 271.968 157.398 272.185 157.034 272.618C156.678 273.043 156.501 273.641 156.501 274.412C156.501 275.183 156.678 275.786 157.034 276.219C157.398 276.652 157.883 276.869 158.49 276.869C159.348 276.869 159.915 276.492 160.193 275.738H161.792C161.584 276.466 161.194 277.047 160.622 277.48C160.05 277.905 159.339 278.117 158.49 278.117C157.805 278.117 157.198 277.965 156.67 277.662C156.141 277.35 155.725 276.917 155.422 276.362C155.127 275.799 154.98 275.149 154.98 274.412ZM164.75 271.877C164.967 271.513 165.253 271.231 165.608 271.032C165.972 270.824 166.401 270.72 166.895 270.72V272.254H166.518C165.938 272.254 165.496 272.401 165.192 272.696C164.898 272.991 164.75 273.502 164.75 274.23V278H163.268V270.837H164.75V271.877ZM169.012 269.888C168.743 269.888 168.518 269.797 168.336 269.615C168.154 269.433 168.063 269.208 168.063 268.939C168.063 268.67 168.154 268.445 168.336 268.263C168.518 268.081 168.743 267.99 169.012 267.99C169.272 267.99 169.493 268.081 169.675 268.263C169.857 268.445 169.948 268.67 169.948 268.939C169.948 269.208 169.857 269.433 169.675 269.615C169.493 269.797 169.272 269.888 169.012 269.888ZM169.74 270.837V278H168.258V270.837H169.74ZM173.167 271.903C173.419 271.556 173.761 271.275 174.194 271.058C174.636 270.833 175.126 270.72 175.663 270.72C176.296 270.72 176.868 270.872 177.379 271.175C177.891 271.478 178.294 271.912 178.588 272.475C178.883 273.03 179.03 273.667 179.03 274.386C179.03 275.105 178.883 275.751 178.588 276.323C178.294 276.886 177.886 277.328 177.366 277.649C176.855 277.961 176.287 278.117 175.663 278.117C175.109 278.117 174.615 278.009 174.181 277.792C173.757 277.575 173.419 277.298 173.167 276.96V278H171.685V268.38H173.167V271.903ZM177.522 274.386C177.522 273.892 177.418 273.467 177.21 273.112C177.011 272.748 176.742 272.475 176.404 272.293C176.075 272.102 175.72 272.007 175.338 272.007C174.966 272.007 174.61 272.102 174.272 272.293C173.943 272.484 173.674 272.761 173.466 273.125C173.267 273.489 173.167 273.918 173.167 274.412C173.167 274.906 173.267 275.339 173.466 275.712C173.674 276.076 173.943 276.353 174.272 276.544C174.61 276.735 174.966 276.83 175.338 276.83C175.72 276.83 176.075 276.735 176.404 276.544C176.742 276.345 177.011 276.059 177.21 275.686C177.418 275.313 177.522 274.88 177.522 274.386ZM187.061 274.243C187.061 274.512 187.044 274.754 187.009 274.971H181.536C181.579 275.543 181.792 276.002 182.173 276.349C182.554 276.696 183.022 276.869 183.577 276.869C184.374 276.869 184.938 276.535 185.267 275.868H186.866C186.649 276.527 186.255 277.068 185.683 277.493C185.12 277.909 184.418 278.117 183.577 278.117C182.892 278.117 182.277 277.965 181.731 277.662C181.194 277.35 180.769 276.917 180.457 276.362C180.154 275.799 180.002 275.149 180.002 274.412C180.002 273.675 180.149 273.03 180.444 272.475C180.747 271.912 181.168 271.478 181.705 271.175C182.251 270.872 182.875 270.72 183.577 270.72C184.253 270.72 184.855 270.867 185.384 271.162C185.913 271.457 186.324 271.873 186.619 272.41C186.914 272.939 187.061 273.55 187.061 274.243ZM185.514 273.775C185.505 273.229 185.31 272.791 184.929 272.462C184.548 272.133 184.075 271.968 183.512 271.968C183.001 271.968 182.563 272.133 182.199 272.462C181.835 272.783 181.618 273.22 181.549 273.775H185.514Z" fill="#002366"/>
<path d="M90.85 179.245C89.1467 179.245 87.6067 178.953 86.23 178.37C84.8767 177.787 83.8033 176.947 83.01 175.85C82.2167 174.753 81.8083 173.458 81.785 171.965H87.035C87.105 172.968 87.455 173.762 88.085 174.345C88.7383 174.928 89.625 175.22 90.745 175.22C91.8883 175.22 92.7867 174.952 93.44 174.415C94.0933 173.855 94.42 173.132 94.42 172.245C94.42 171.522 94.1983 170.927 93.755 170.46C93.3117 169.993 92.7517 169.632 92.075 169.375C91.4217 169.095 90.5117 168.792 89.345 168.465C87.7583 167.998 86.4633 167.543 85.46 167.1C84.48 166.633 83.6283 165.945 82.905 165.035C82.205 164.102 81.855 162.865 81.855 161.325C81.855 159.878 82.2167 158.618 82.94 157.545C83.6633 156.472 84.6783 155.655 85.985 155.095C87.2917 154.512 88.785 154.22 90.465 154.22C92.985 154.22 95.0267 154.838 96.59 156.075C98.1767 157.288 99.0517 158.992 99.215 161.185H93.825C93.7783 160.345 93.4167 159.657 92.74 159.12C92.0867 158.56 91.2117 158.28 90.115 158.28C89.1583 158.28 88.3883 158.525 87.805 159.015C87.245 159.505 86.965 160.217 86.965 161.15C86.965 161.803 87.175 162.352 87.595 162.795C88.0383 163.215 88.575 163.565 89.205 163.845C89.8583 164.102 90.7683 164.405 91.935 164.755C93.5217 165.222 94.8167 165.688 95.82 166.155C96.8233 166.622 97.6867 167.322 98.41 168.255C99.1333 169.188 99.495 170.413 99.495 171.93C99.495 173.237 99.1567 174.45 98.48 175.57C97.8033 176.69 96.8117 177.588 95.505 178.265C94.1983 178.918 92.6467 179.245 90.85 179.245ZM122.048 159.61V179H117.113V176.55C116.483 177.39 115.655 178.055 114.628 178.545C113.625 179.012 112.528 179.245 111.338 179.245C109.821 179.245 108.48 178.93 107.313 178.3C106.146 177.647 105.225 176.702 104.548 175.465C103.895 174.205 103.568 172.712 103.568 170.985V159.61H108.468V170.285C108.468 171.825 108.853 173.015 109.623 173.855C110.393 174.672 111.443 175.08 112.773 175.08C114.126 175.08 115.188 174.672 115.958 173.855C116.728 173.015 117.113 171.825 117.113 170.285V159.61H122.048ZM131.783 162.445C132.413 161.512 133.276 160.753 134.373 160.17C135.493 159.587 136.764 159.295 138.188 159.295C139.844 159.295 141.338 159.703 142.668 160.52C144.021 161.337 145.083 162.503 145.853 164.02C146.646 165.513 147.043 167.252 147.043 169.235C147.043 171.218 146.646 172.98 145.853 174.52C145.083 176.037 144.021 177.215 142.668 178.055C141.338 178.895 139.844 179.315 138.188 179.315C136.741 179.315 135.469 179.035 134.373 178.475C133.299 177.892 132.436 177.145 131.783 176.235V179H126.883V153.1H131.783V162.445ZM142.038 169.235C142.038 168.068 141.793 167.065 141.303 166.225C140.836 165.362 140.206 164.708 139.413 164.265C138.643 163.822 137.803 163.6 136.893 163.6C136.006 163.6 135.166 163.833 134.373 164.3C133.603 164.743 132.973 165.397 132.483 166.26C132.016 167.123 131.783 168.138 131.783 169.305C131.783 170.472 132.016 171.487 132.483 172.35C132.973 173.213 133.603 173.878 134.373 174.345C135.166 174.788 136.006 175.01 136.893 175.01C137.803 175.01 138.643 174.777 139.413 174.31C140.206 173.843 140.836 173.178 141.303 172.315C141.793 171.452 142.038 170.425 142.038 169.235ZM158.023 179.315C156.437 179.315 155.013 179.035 153.753 178.475C152.493 177.892 151.49 177.11 150.743 176.13C150.02 175.15 149.623 174.065 149.553 172.875H154.488C154.582 173.622 154.943 174.24 155.573 174.73C156.227 175.22 157.032 175.465 157.988 175.465C158.922 175.465 159.645 175.278 160.158 174.905C160.695 174.532 160.963 174.053 160.963 173.47C160.963 172.84 160.637 172.373 159.983 172.07C159.353 171.743 158.338 171.393 156.938 171.02C155.492 170.67 154.302 170.308 153.368 169.935C152.458 169.562 151.665 168.99 150.988 168.22C150.335 167.45 150.008 166.412 150.008 165.105C150.008 164.032 150.312 163.052 150.918 162.165C151.548 161.278 152.435 160.578 153.578 160.065C154.745 159.552 156.11 159.295 157.673 159.295C159.983 159.295 161.827 159.878 163.203 161.045C164.58 162.188 165.338 163.74 165.478 165.7H160.788C160.718 164.93 160.392 164.323 159.808 163.88C159.248 163.413 158.49 163.18 157.533 163.18C156.647 163.18 155.958 163.343 155.468 163.67C155.002 163.997 154.768 164.452 154.768 165.035C154.768 165.688 155.095 166.19 155.748 166.54C156.402 166.867 157.417 167.205 158.793 167.555C160.193 167.905 161.348 168.267 162.258 168.64C163.168 169.013 163.95 169.597 164.603 170.39C165.28 171.16 165.63 172.187 165.653 173.47C165.653 174.59 165.338 175.593 164.708 176.48C164.102 177.367 163.215 178.067 162.048 178.58C160.905 179.07 159.563 179.315 158.023 179.315ZM168.416 169.305C168.416 167.298 168.824 165.548 169.641 164.055C170.457 162.538 171.589 161.372 173.036 160.555C174.482 159.715 176.139 159.295 178.006 159.295C180.409 159.295 182.392 159.902 183.956 161.115C185.542 162.305 186.604 163.985 187.141 166.155H181.856C181.576 165.315 181.097 164.662 180.421 164.195C179.767 163.705 178.951 163.46 177.971 163.46C176.571 163.46 175.462 163.973 174.646 165C173.829 166.003 173.421 167.438 173.421 169.305C173.421 171.148 173.829 172.583 174.646 173.61C175.462 174.613 176.571 175.115 177.971 175.115C179.954 175.115 181.249 174.228 181.856 172.455H187.141C186.604 174.555 185.542 176.223 183.956 177.46C182.369 178.697 180.386 179.315 178.006 179.315C176.139 179.315 174.482 178.907 173.036 178.09C171.589 177.25 170.457 176.083 169.641 174.59C168.824 173.073 168.416 171.312 168.416 169.305ZM195.63 162.62C196.26 161.593 197.077 160.788 198.08 160.205C199.107 159.622 200.274 159.33 201.58 159.33V164.475H200.285C198.745 164.475 197.579 164.837 196.785 165.56C196.015 166.283 195.63 167.543 195.63 169.34V179H190.73V159.61H195.63V162.62ZM207.366 157.3C206.502 157.3 205.779 157.032 205.196 156.495C204.636 155.935 204.356 155.247 204.356 154.43C204.356 153.613 204.636 152.937 205.196 152.4C205.779 151.84 206.502 151.56 207.366 151.56C208.229 151.56 208.941 151.84 209.501 152.4C210.084 152.937 210.376 153.613 210.376 154.43C210.376 155.247 210.084 155.935 209.501 156.495C208.941 157.032 208.229 157.3 207.366 157.3ZM209.781 159.61V179H204.881V159.61H209.781ZM219.522 162.445C220.152 161.512 221.015 160.753 222.112 160.17C223.232 159.587 224.504 159.295 225.927 159.295C227.584 159.295 229.077 159.703 230.407 160.52C231.76 161.337 232.822 162.503 233.592 164.02C234.385 165.513 234.782 167.252 234.782 169.235C234.782 171.218 234.385 172.98 233.592 174.52C232.822 176.037 231.76 177.215 230.407 178.055C229.077 178.895 227.584 179.315 225.927 179.315C224.48 179.315 223.209 179.035 222.112 178.475C221.039 177.892 220.175 177.145 219.522 176.235V179H214.622V153.1H219.522V162.445ZM229.777 169.235C229.777 168.068 229.532 167.065 229.042 166.225C228.575 165.362 227.945 164.708 227.152 164.265C226.382 163.822 225.542 163.6 224.632 163.6C223.745 163.6 222.905 163.833 222.112 164.3C221.342 164.743 220.712 165.397 220.222 166.26C219.755 167.123 219.522 168.138 219.522 169.305C219.522 170.472 219.755 171.487 220.222 172.35C220.712 173.213 221.342 173.878 222.112 174.345C222.905 174.788 223.745 175.01 224.632 175.01C225.542 175.01 226.382 174.777 227.152 174.31C227.945 173.843 228.575 173.178 229.042 172.315C229.532 171.452 229.777 170.425 229.777 169.235ZM256.368 168.885C256.368 169.585 256.321 170.215 256.228 170.775H242.053C242.169 172.175 242.659 173.272 243.523 174.065C244.386 174.858 245.448 175.255 246.708 175.255C248.528 175.255 249.823 174.473 250.593 172.91H255.878C255.318 174.777 254.244 176.317 252.658 177.53C251.071 178.72 249.123 179.315 246.813 179.315C244.946 179.315 243.266 178.907 241.773 178.09C240.303 177.25 239.148 176.072 238.308 174.555C237.491 173.038 237.083 171.288 237.083 169.305C237.083 167.298 237.491 165.537 238.308 164.02C239.124 162.503 240.268 161.337 241.738 160.52C243.208 159.703 244.899 159.295 246.813 159.295C248.656 159.295 250.301 159.692 251.748 160.485C253.218 161.278 254.349 162.41 255.143 163.88C255.959 165.327 256.368 166.995 256.368 168.885ZM251.293 167.485C251.269 166.225 250.814 165.222 249.928 164.475C249.041 163.705 247.956 163.32 246.673 163.32C245.459 163.32 244.433 163.693 243.593 164.44C242.776 165.163 242.274 166.178 242.088 167.485H251.293ZM273.989 163.635V173.015C273.989 173.668 274.141 174.147 274.444 174.45C274.771 174.73 275.307 174.87 276.054 174.87H278.329V179H275.249C271.119 179 269.054 176.993 269.054 172.98V163.635H266.744V159.61H269.054V154.815H273.989V159.61H278.329V163.635H273.989ZM290.463 179.315C288.597 179.315 286.917 178.907 285.423 178.09C283.93 177.25 282.752 176.072 281.888 174.555C281.048 173.038 280.628 171.288 280.628 169.305C280.628 167.322 281.06 165.572 281.923 164.055C282.81 162.538 284.012 161.372 285.528 160.555C287.045 159.715 288.737 159.295 290.603 159.295C292.47 159.295 294.162 159.715 295.678 160.555C297.195 161.372 298.385 162.538 299.248 164.055C300.135 165.572 300.578 167.322 300.578 169.305C300.578 171.288 300.123 173.038 299.213 174.555C298.327 176.072 297.113 177.25 295.573 178.09C294.057 178.907 292.353 179.315 290.463 179.315ZM290.463 175.045C291.35 175.045 292.178 174.835 292.948 174.415C293.742 173.972 294.372 173.318 294.838 172.455C295.305 171.592 295.538 170.542 295.538 169.305C295.538 167.462 295.048 166.05 294.068 165.07C293.112 164.067 291.933 163.565 290.533 163.565C289.133 163.565 287.955 164.067 286.998 165.07C286.065 166.05 285.598 167.462 285.598 169.305C285.598 171.148 286.053 172.572 286.963 173.575C287.897 174.555 289.063 175.045 290.463 175.045ZM321.123 179.315C319.256 179.315 317.576 178.907 316.083 178.09C314.589 177.25 313.411 176.072 312.548 174.555C311.708 173.038 311.288 171.288 311.288 169.305C311.288 167.322 311.719 165.572 312.583 164.055C313.469 162.538 314.671 161.372 316.188 160.555C317.704 159.715 319.396 159.295 321.263 159.295C323.129 159.295 324.821 159.715 326.338 160.555C327.854 161.372 329.044 162.538 329.908 164.055C330.794 165.572 331.238 167.322 331.238 169.305C331.238 171.288 330.783 173.038 329.873 174.555C328.986 176.072 327.773 177.25 326.233 178.09C324.716 178.907 323.013 179.315 321.123 179.315ZM321.123 175.045C322.009 175.045 322.838 174.835 323.608 174.415C324.401 173.972 325.031 173.318 325.498 172.455C325.964 171.592 326.198 170.542 326.198 169.305C326.198 167.462 325.708 166.05 324.728 165.07C323.771 164.067 322.593 163.565 321.193 163.565C319.793 163.565 318.614 164.067 317.658 165.07C316.724 166.05 316.258 167.462 316.258 169.305C316.258 171.148 316.713 172.572 317.623 173.575C318.556 174.555 319.723 175.045 321.123 175.045ZM353.137 159.61V179H348.202V176.55C347.572 177.39 346.744 178.055 345.717 178.545C344.714 179.012 343.617 179.245 342.427 179.245C340.91 179.245 339.569 178.93 338.402 178.3C337.235 177.647 336.314 176.702 335.637 175.465C334.984 174.205 334.657 172.712 334.657 170.985V159.61H339.557V170.285C339.557 171.825 339.942 173.015 340.712 173.855C341.482 174.672 342.532 175.08 343.862 175.08C345.215 175.08 346.277 174.672 347.047 173.855C347.817 173.015 348.202 171.825 348.202 170.285V159.61H353.137ZM362.872 162.62C363.502 161.593 364.318 160.788 365.322 160.205C366.348 159.622 367.515 159.33 368.822 159.33V164.475H367.527C365.987 164.475 364.82 164.837 364.027 165.56C363.257 166.283 362.872 167.543 362.872 169.34V179H357.972V159.61H362.872V162.62ZM401.357 179H396.457L385.362 162.235V179H380.462V154.535H385.362L396.457 171.335V154.535H401.357V179ZM424.224 168.885C424.224 169.585 424.178 170.215 424.084 170.775H409.909C410.026 172.175 410.516 173.272 411.379 174.065C412.243 174.858 413.304 175.255 414.564 175.255C416.384 175.255 417.679 174.473 418.449 172.91H423.734C423.174 174.777 422.101 176.317 420.514 177.53C418.928 178.72 416.979 179.315 414.669 179.315C412.803 179.315 411.123 178.907 409.629 178.09C408.159 177.25 407.004 176.072 406.164 174.555C405.348 173.038 404.939 171.288 404.939 169.305C404.939 167.298 405.348 165.537 406.164 164.02C406.981 162.503 408.124 161.337 409.594 160.52C411.064 159.703 412.756 159.295 414.669 159.295C416.513 159.295 418.158 159.692 419.604 160.485C421.074 161.278 422.206 162.41 422.999 163.88C423.816 165.327 424.224 166.995 424.224 168.885ZM419.149 167.485C419.126 166.225 418.671 165.222 417.784 164.475C416.898 163.705 415.813 163.32 414.529 163.32C413.316 163.32 412.289 163.693 411.449 164.44C410.633 165.163 410.131 166.178 409.944 167.485H419.149ZM454.681 159.61L449.011 179H443.726L440.191 165.455L436.656 179H431.336L425.631 159.61H430.601L434.031 174.38L437.741 159.61H442.921L446.561 174.345L449.991 159.61H454.681ZM464.752 179.315C463.165 179.315 461.742 179.035 460.482 178.475C459.222 177.892 458.219 177.11 457.472 176.13C456.749 175.15 456.352 174.065 456.282 172.875H461.217C461.31 173.622 461.672 174.24 462.302 174.73C462.955 175.22 463.76 175.465 464.717 175.465C465.65 175.465 466.374 175.278 466.887 174.905C467.424 174.532 467.692 174.053 467.692 173.47C467.692 172.84 467.365 172.373 466.712 172.07C466.082 171.743 465.067 171.393 463.667 171.02C462.22 170.67 461.03 170.308 460.097 169.935C459.187 169.562 458.394 168.99 457.717 168.22C457.064 167.45 456.737 166.412 456.737 165.105C456.737 164.032 457.04 163.052 457.647 162.165C458.277 161.278 459.164 160.578 460.307 160.065C461.474 159.552 462.839 159.295 464.402 159.295C466.712 159.295 468.555 159.878 469.932 161.045C471.309 162.188 472.067 163.74 472.207 165.7H467.517C467.447 164.93 467.12 164.323 466.537 163.88C465.977 163.413 465.219 163.18 464.262 163.18C463.375 163.18 462.687 163.343 462.197 163.67C461.73 163.997 461.497 164.452 461.497 165.035C461.497 165.688 461.824 166.19 462.477 166.54C463.13 166.867 464.145 167.205 465.522 167.555C466.922 167.905 468.077 168.267 468.987 168.64C469.897 169.013 470.679 169.597 471.332 170.39C472.009 171.16 472.359 172.187 472.382 173.47C472.382 174.59 472.067 175.593 471.437 176.48C470.83 177.367 469.944 178.067 468.777 178.58C467.634 179.07 466.292 179.315 464.752 179.315ZM481.304 153.1V179H476.404V153.1H481.304ZM504.17 168.885C504.17 169.585 504.124 170.215 504.03 170.775H489.855C489.972 172.175 490.462 173.272 491.325 174.065C492.189 174.858 493.25 175.255 494.51 175.255C496.33 175.255 497.625 174.473 498.395 172.91H503.68C503.12 174.777 502.047 176.317 500.46 177.53C498.874 178.72 496.925 179.315 494.615 179.315C492.749 179.315 491.069 178.907 489.575 178.09C488.105 177.25 486.95 176.072 486.11 174.555C485.294 173.038 484.885 171.288 484.885 169.305C484.885 167.298 485.294 165.537 486.11 164.02C486.927 162.503 488.07 161.337 489.54 160.52C491.01 159.703 492.702 159.295 494.615 159.295C496.459 159.295 498.104 159.692 499.55 160.485C501.02 161.278 502.152 162.41 502.945 163.88C503.762 165.327 504.17 166.995 504.17 168.885ZM499.095 167.485C499.072 166.225 498.617 165.222 497.73 164.475C496.844 163.705 495.759 163.32 494.475 163.32C493.262 163.32 492.235 163.693 491.395 164.44C490.579 165.163 490.077 166.178 489.89 167.485H499.095ZM513.452 163.635V173.015C513.452 173.668 513.604 174.147 513.907 174.45C514.234 174.73 514.77 174.87 515.517 174.87H517.792V179H514.712C510.582 179 508.517 176.993 508.517 172.98V163.635H506.207V159.61H508.517V154.815H513.452V159.61H517.792V163.635H513.452ZM527.021 163.635V173.015C527.021 173.668 527.173 174.147 527.476 174.45C527.803 174.73 528.34 174.87 529.086 174.87H531.361V179H528.281C524.151 179 522.086 176.993 522.086 172.98V163.635H519.776V159.61H522.086V154.815H527.021V159.61H531.361V163.635H527.021ZM552.911 168.885C552.911 169.585 552.864 170.215 552.771 170.775H538.596C538.712 172.175 539.202 173.272 540.066 174.065C540.929 174.858 541.991 175.255 543.251 175.255C545.071 175.255 546.366 174.473 547.136 172.91H552.421C551.861 174.777 550.787 176.317 549.201 177.53C547.614 178.72 545.666 179.315 543.356 179.315C541.489 179.315 539.809 178.907 538.316 178.09C536.846 177.25 535.691 176.072 534.851 174.555C534.034 173.038 533.626 171.288 533.626 169.305C533.626 167.298 534.034 165.537 534.851 164.02C535.667 162.503 536.811 161.337 538.281 160.52C539.751 159.703 541.442 159.295 543.356 159.295C545.199 159.295 546.844 159.692 548.291 160.485C549.761 161.278 550.892 162.41 551.686 163.88C552.502 165.327 552.911 166.995 552.911 168.885ZM547.836 167.485C547.812 166.225 547.357 165.222 546.471 164.475C545.584 163.705 544.499 163.32 543.216 163.32C542.002 163.32 540.976 163.693 540.136 164.44C539.319 165.163 538.817 166.178 538.631 167.485H547.836ZM561.387 162.62C562.017 161.593 562.834 160.788 563.837 160.205C564.864 159.622 566.031 159.33 567.337 159.33V164.475H566.042C564.502 164.475 563.336 164.837 562.542 165.56C561.772 166.283 561.387 167.543 561.387 169.34V179H556.487V159.61H561.387V162.62ZM576.973 154.15L576.413 171.055H572.283L571.688 154.15H576.973ZM574.453 179.245C573.566 179.245 572.831 178.977 572.248 178.44C571.688 177.88 571.408 177.192 571.408 176.375C571.408 175.558 571.688 174.882 572.248 174.345C572.831 173.785 573.566 173.505 574.453 173.505C575.316 173.505 576.028 173.785 576.588 174.345C577.148 174.882 577.428 175.558 577.428 176.375C577.428 177.192 577.148 177.88 576.588 178.44C576.028 178.977 575.316 179.245 574.453 179.245Z" fill="white"/>
<path opacity="0.75" d="M84.768 220.112C84.032 220.112 83.3707 219.984 82.784 219.728C82.208 219.461 81.7547 219.099 81.424 218.64C81.0933 218.171 80.9227 217.632 80.912 217.024H82.464C82.5173 217.547 82.7307 217.989 83.104 218.352C83.488 218.704 84.0427 218.88 84.768 218.88C85.4613 218.88 86.0053 218.709 86.4 218.368C86.8053 218.016 87.008 217.568 87.008 217.024C87.008 216.597 86.8907 216.251 86.656 215.984C86.4213 215.717 86.128 215.515 85.776 215.376C85.424 215.237 84.9493 215.088 84.352 214.928C83.616 214.736 83.024 214.544 82.576 214.352C82.1387 214.16 81.76 213.861 81.44 213.456C81.1307 213.04 80.976 212.485 80.976 211.792C80.976 211.184 81.1307 210.645 81.44 210.176C81.7493 209.707 82.1813 209.344 82.736 209.088C83.3013 208.832 83.9467 208.704 84.672 208.704C85.7173 208.704 86.5707 208.965 87.232 209.488C87.904 210.011 88.2827 210.704 88.368 211.568H86.768C86.7147 211.141 86.4907 210.768 86.096 210.448C85.7013 210.117 85.1787 209.952 84.528 209.952C83.92 209.952 83.424 210.112 83.04 210.432C82.656 210.741 82.464 211.179 82.464 211.744C82.464 212.149 82.576 212.48 82.8 212.736C83.0347 212.992 83.3173 213.189 83.648 213.328C83.9893 213.456 84.464 213.605 85.072 213.776C85.808 213.979 86.4 214.181 86.848 214.384C87.296 214.576 87.68 214.88 88 215.296C88.32 215.701 88.48 216.256 88.48 216.96C88.48 217.504 88.336 218.016 88.048 218.496C87.76 218.976 87.3333 219.365 86.768 219.664C86.2027 219.963 85.536 220.112 84.768 220.112ZM98.3986 211.232V220H96.9426V218.704C96.6653 219.152 96.276 219.504 95.7746 219.76C95.284 220.005 94.74 220.128 94.1426 220.128C93.46 220.128 92.8466 219.989 92.3026 219.712C91.7586 219.424 91.3266 218.997 91.0066 218.432C90.6973 217.867 90.5426 217.179 90.5426 216.368V211.232H91.9826V216.176C91.9826 217.04 92.2013 217.707 92.6386 218.176C93.076 218.635 93.6733 218.864 94.4306 218.864C95.2093 218.864 95.8226 218.624 96.2706 218.144C96.7186 217.664 96.9426 216.965 96.9426 216.048V211.232H98.3986ZM102.313 212.864C102.612 212.341 103.049 211.915 103.625 211.584C104.201 211.253 104.857 211.088 105.593 211.088C106.382 211.088 107.092 211.275 107.721 211.648C108.35 212.021 108.846 212.549 109.209 213.232C109.572 213.904 109.753 214.688 109.753 215.584C109.753 216.469 109.572 217.259 109.209 217.952C108.846 218.645 108.345 219.184 107.705 219.568C107.076 219.952 106.372 220.144 105.593 220.144C104.836 220.144 104.169 219.979 103.593 219.648C103.028 219.317 102.601 218.896 102.313 218.384V220H100.857V208.16H102.313V212.864ZM108.265 215.584C108.265 214.923 108.132 214.347 107.865 213.856C107.598 213.365 107.236 212.992 106.777 212.736C106.329 212.48 105.833 212.352 105.289 212.352C104.756 212.352 104.26 212.485 103.801 212.752C103.353 213.008 102.99 213.387 102.713 213.888C102.446 214.379 102.313 214.949 102.313 215.6C102.313 216.261 102.446 216.843 102.713 217.344C102.99 217.835 103.353 218.213 103.801 218.48C104.26 218.736 104.756 218.864 105.289 218.864C105.833 218.864 106.329 218.736 106.777 218.48C107.236 218.213 107.598 217.835 107.865 217.344C108.132 216.843 108.265 216.256 108.265 215.584ZM114.774 220.144C114.102 220.144 113.499 220.032 112.966 219.808C112.432 219.573 112.011 219.253 111.702 218.848C111.392 218.432 111.222 217.957 111.19 217.424H112.694C112.736 217.861 112.939 218.219 113.302 218.496C113.675 218.773 114.16 218.912 114.758 218.912C115.312 218.912 115.75 218.789 116.07 218.544C116.39 218.299 116.55 217.989 116.55 217.616C116.55 217.232 116.379 216.949 116.038 216.768C115.696 216.576 115.168 216.389 114.454 216.208C113.803 216.037 113.27 215.867 112.854 215.696C112.448 215.515 112.096 215.253 111.798 214.912C111.51 214.56 111.366 214.101 111.366 213.536C111.366 213.088 111.499 212.677 111.766 212.304C112.032 211.931 112.411 211.637 112.902 211.424C113.392 211.2 113.952 211.088 114.582 211.088C115.552 211.088 116.336 211.333 116.934 211.824C117.531 212.315 117.851 212.987 117.894 213.84H116.438C116.406 213.381 116.219 213.013 115.878 212.736C115.547 212.459 115.099 212.32 114.534 212.32C114.011 212.32 113.595 212.432 113.286 212.656C112.976 212.88 112.822 213.173 112.822 213.536C112.822 213.824 112.912 214.064 113.094 214.256C113.286 214.437 113.52 214.587 113.798 214.704C114.086 214.811 114.48 214.933 114.982 215.072C115.611 215.243 116.123 215.413 116.518 215.584C116.912 215.744 117.248 215.989 117.526 216.32C117.814 216.651 117.963 217.083 117.974 217.616C117.974 218.096 117.84 218.528 117.574 218.912C117.307 219.296 116.928 219.6 116.438 219.824C115.958 220.037 115.403 220.144 114.774 220.144ZM119.485 215.6C119.485 214.693 119.666 213.904 120.029 213.232C120.392 212.549 120.893 212.021 121.533 211.648C122.184 211.275 122.925 211.088 123.757 211.088C124.834 211.088 125.72 211.349 126.413 211.872C127.117 212.395 127.581 213.12 127.805 214.048H126.237C126.088 213.515 125.794 213.093 125.357 212.784C124.93 212.475 124.397 212.32 123.757 212.32C122.925 212.32 122.253 212.608 121.741 213.184C121.229 213.749 120.973 214.555 120.973 215.6C120.973 216.656 121.229 217.472 121.741 218.048C122.253 218.624 122.925 218.912 123.757 218.912C124.397 218.912 124.93 218.763 125.357 218.464C125.784 218.165 126.077 217.739 126.237 217.184H127.805C127.57 218.08 127.101 218.8 126.397 219.344C125.693 219.877 124.813 220.144 123.757 220.144C122.925 220.144 122.184 219.957 121.533 219.584C120.893 219.211 120.392 218.683 120.029 218C119.666 217.317 119.485 216.517 119.485 215.6ZM131.204 212.656C131.46 212.155 131.822 211.765 132.292 211.488C132.772 211.211 133.353 211.072 134.036 211.072V212.576H133.652C132.02 212.576 131.204 213.461 131.204 215.232V220H129.748V211.232H131.204V212.656ZM136.468 209.808C136.191 209.808 135.956 209.712 135.764 209.52C135.572 209.328 135.476 209.093 135.476 208.816C135.476 208.539 135.572 208.304 135.764 208.112C135.956 207.92 136.191 207.824 136.468 207.824C136.735 207.824 136.959 207.92 137.14 208.112C137.332 208.304 137.428 208.539 137.428 208.816C137.428 209.093 137.332 209.328 137.14 209.52C136.959 209.712 136.735 209.808 136.468 209.808ZM137.172 211.232V220H135.716V211.232H137.172ZM141.11 212.864C141.409 212.341 141.846 211.915 142.422 211.584C142.998 211.253 143.654 211.088 144.39 211.088C145.179 211.088 145.889 211.275 146.518 211.648C147.147 212.021 147.643 212.549 148.006 213.232C148.369 213.904 148.55 214.688 148.55 215.584C148.55 216.469 148.369 217.259 148.006 217.952C147.643 218.645 147.142 219.184 146.502 219.568C145.873 219.952 145.169 220.144 144.39 220.144C143.633 220.144 142.966 219.979 142.39 219.648C141.825 219.317 141.398 218.896 141.11 218.384V220H139.654V208.16H141.11V212.864ZM147.062 215.584C147.062 214.923 146.929 214.347 146.662 213.856C146.395 213.365 146.033 212.992 145.574 212.736C145.126 212.48 144.63 212.352 144.086 212.352C143.553 212.352 143.057 212.485 142.598 212.752C142.15 213.008 141.787 213.387 141.51 213.888C141.243 214.379 141.11 214.949 141.11 215.6C141.11 216.261 141.243 216.843 141.51 217.344C141.787 217.835 142.15 218.213 142.598 218.48C143.057 218.736 143.553 218.864 144.086 218.864C144.63 218.864 145.126 218.736 145.574 218.48C146.033 218.213 146.395 217.835 146.662 217.344C146.929 216.843 147.062 216.256 147.062 215.584ZM158.466 215.28C158.466 215.557 158.45 215.851 158.418 216.16H151.41C151.464 217.024 151.757 217.701 152.29 218.192C152.834 218.672 153.49 218.912 154.258 218.912C154.888 218.912 155.41 218.768 155.826 218.48C156.253 218.181 156.552 217.787 156.722 217.296H158.29C158.056 218.139 157.586 218.827 156.882 219.36C156.178 219.883 155.304 220.144 154.258 220.144C153.426 220.144 152.68 219.957 152.018 219.584C151.368 219.211 150.856 218.683 150.482 218C150.109 217.307 149.922 216.507 149.922 215.6C149.922 214.693 150.104 213.899 150.466 213.216C150.829 212.533 151.336 212.011 151.986 211.648C152.648 211.275 153.405 211.088 154.258 211.088C155.09 211.088 155.826 211.269 156.466 211.632C157.106 211.995 157.597 212.496 157.938 213.136C158.29 213.765 158.466 214.48 158.466 215.28ZM156.962 214.976C156.962 214.421 156.84 213.947 156.594 213.552C156.349 213.147 156.013 212.843 155.586 212.64C155.17 212.427 154.706 212.32 154.194 212.32C153.458 212.32 152.829 212.555 152.306 213.024C151.794 213.493 151.501 214.144 151.426 214.976H156.962ZM166.43 212.432V217.6C166.43 218.027 166.521 218.331 166.702 218.512C166.883 218.683 167.198 218.768 167.646 218.768H168.718V220H167.406C166.595 220 165.987 219.813 165.582 219.44C165.177 219.067 164.974 218.453 164.974 217.6V212.432H163.838V211.232H164.974V209.024H166.43V211.232H168.718V212.432H166.43ZM174.306 220.144C173.485 220.144 172.738 219.957 172.066 219.584C171.405 219.211 170.882 218.683 170.498 218C170.125 217.307 169.938 216.507 169.938 215.6C169.938 214.704 170.13 213.915 170.514 213.232C170.909 212.539 171.442 212.011 172.114 211.648C172.786 211.275 173.538 211.088 174.37 211.088C175.202 211.088 175.954 211.275 176.626 211.648C177.298 212.011 177.826 212.533 178.21 213.216C178.605 213.899 178.802 214.693 178.802 215.6C178.802 216.507 178.599 217.307 178.194 218C177.799 218.683 177.261 219.211 176.578 219.584C175.895 219.957 175.138 220.144 174.306 220.144ZM174.306 218.864C174.829 218.864 175.319 218.741 175.778 218.496C176.237 218.251 176.605 217.883 176.882 217.392C177.17 216.901 177.314 216.304 177.314 215.6C177.314 214.896 177.175 214.299 176.898 213.808C176.621 213.317 176.258 212.955 175.81 212.72C175.362 212.475 174.877 212.352 174.354 212.352C173.821 212.352 173.33 212.475 172.882 212.72C172.445 212.955 172.093 213.317 171.826 213.808C171.559 214.299 171.426 214.896 171.426 215.6C171.426 216.315 171.554 216.917 171.81 217.408C172.077 217.899 172.429 218.267 172.866 218.512C173.303 218.747 173.783 218.864 174.306 218.864ZM188.806 220.144C187.985 220.144 187.238 219.957 186.566 219.584C185.905 219.211 185.382 218.683 184.998 218C184.625 217.307 184.438 216.507 184.438 215.6C184.438 214.704 184.63 213.915 185.014 213.232C185.409 212.539 185.942 212.011 186.614 211.648C187.286 211.275 188.038 211.088 188.87 211.088C189.702 211.088 190.454 211.275 191.126 211.648C191.798 212.011 192.326 212.533 192.71 213.216C193.105 213.899 193.302 214.693 193.302 215.6C193.302 216.507 193.099 217.307 192.694 218C192.299 218.683 191.761 219.211 191.078 219.584C190.395 219.957 189.638 220.144 188.806 220.144ZM188.806 218.864C189.329 218.864 189.819 218.741 190.278 218.496C190.737 218.251 191.105 217.883 191.382 217.392C191.67 216.901 191.814 216.304 191.814 215.6C191.814 214.896 191.675 214.299 191.398 213.808C191.121 213.317 190.758 212.955 190.31 212.72C189.862 212.475 189.377 212.352 188.854 212.352C188.321 212.352 187.83 212.475 187.382 212.72C186.945 212.955 186.593 213.317 186.326 213.808C186.059 214.299 185.926 214.896 185.926 215.6C185.926 216.315 186.054 216.917 186.31 217.408C186.577 217.899 186.929 218.267 187.366 218.512C187.803 218.747 188.283 218.864 188.806 218.864ZM202.992 211.232V220H201.536V218.704C201.259 219.152 200.87 219.504 200.368 219.76C199.878 220.005 199.334 220.128 198.736 220.128C198.054 220.128 197.44 219.989 196.896 219.712C196.352 219.424 195.92 218.997 195.6 218.432C195.291 217.867 195.136 217.179 195.136 216.368V211.232H196.576V216.176C196.576 217.04 196.795 217.707 197.232 218.176C197.67 218.635 198.267 218.864 199.024 218.864C199.803 218.864 200.416 218.624 200.864 218.144C201.312 217.664 201.536 216.965 201.536 216.048V211.232H202.992ZM206.907 212.656C207.163 212.155 207.525 211.765 207.995 211.488C208.475 211.211 209.056 211.072 209.739 211.072V212.576H209.355C207.723 212.576 206.907 213.461 206.907 215.232V220H205.451V211.232H206.907V212.656ZM219.957 211.072C221.024 211.072 221.888 211.397 222.549 212.048C223.21 212.688 223.541 213.616 223.541 214.832V220H222.101V215.04C222.101 214.165 221.882 213.499 221.445 213.04C221.008 212.571 220.41 212.336 219.653 212.336C218.885 212.336 218.272 212.576 217.813 213.056C217.365 213.536 217.141 214.235 217.141 215.152V220H215.685V211.232H217.141V212.48C217.429 212.032 217.818 211.685 218.309 211.44C218.81 211.195 219.36 211.072 219.957 211.072ZM233.92 215.28C233.92 215.557 233.904 215.851 233.872 216.16H226.864C226.917 217.024 227.21 217.701 227.744 218.192C228.288 218.672 228.944 218.912 229.712 218.912C230.341 218.912 230.864 218.768 231.28 218.48C231.706 218.181 232.005 217.787 232.176 217.296H233.744C233.509 218.139 233.04 218.827 232.336 219.36C231.632 219.883 230.757 220.144 229.712 220.144C228.88 220.144 228.133 219.957 227.472 219.584C226.821 219.211 226.309 218.683 225.936 218C225.562 217.307 225.376 216.507 225.376 215.6C225.376 214.693 225.557 213.899 225.92 213.216C226.282 212.533 226.789 212.011 227.44 211.648C228.101 211.275 228.858 211.088 229.712 211.088C230.544 211.088 231.28 211.269 231.92 211.632C232.56 211.995 233.05 212.496 233.392 213.136C233.744 213.765 233.92 214.48 233.92 215.28ZM232.416 214.976C232.416 214.421 232.293 213.947 232.048 213.552C231.802 213.147 231.466 212.843 231.04 212.64C230.624 212.427 230.16 212.32 229.648 212.32C228.912 212.32 228.282 212.555 227.76 213.024C227.248 213.493 226.954 214.144 226.88 214.976H232.416ZM247.521 211.232L244.785 220H243.281L241.169 213.04L239.057 220H237.553L234.801 211.232H236.289L238.305 218.592L240.481 211.232H241.969L244.097 218.608L246.081 211.232H247.521ZM252.07 220.144C251.398 220.144 250.796 220.032 250.262 219.808C249.729 219.573 249.308 219.253 248.998 218.848C248.689 218.432 248.518 217.957 248.486 217.424H249.99C250.033 217.861 250.236 218.219 250.598 218.496C250.972 218.773 251.457 218.912 252.054 218.912C252.609 218.912 253.046 218.789 253.366 218.544C253.686 218.299 253.846 217.989 253.846 217.616C253.846 217.232 253.676 216.949 253.334 216.768C252.993 216.576 252.465 216.389 251.75 216.208C251.1 216.037 250.566 215.867 250.15 215.696C249.745 215.515 249.393 215.253 249.094 214.912C248.806 214.56 248.662 214.101 248.662 213.536C248.662 213.088 248.796 212.677 249.062 212.304C249.329 211.931 249.708 211.637 250.198 211.424C250.689 211.2 251.249 211.088 251.878 211.088C252.849 211.088 253.633 211.333 254.23 211.824C254.828 212.315 255.148 212.987 255.19 213.84H253.734C253.702 213.381 253.516 213.013 253.174 212.736C252.844 212.459 252.396 212.32 251.83 212.32C251.308 212.32 250.892 212.432 250.582 212.656C250.273 212.88 250.118 213.173 250.118 213.536C250.118 213.824 250.209 214.064 250.39 214.256C250.582 214.437 250.817 214.587 251.094 214.704C251.382 214.811 251.777 214.933 252.278 215.072C252.908 215.243 253.42 215.413 253.814 215.584C254.209 215.744 254.545 215.989 254.822 216.32C255.11 216.651 255.26 217.083 255.27 217.616C255.27 218.096 255.137 218.528 254.87 218.912C254.604 219.296 254.225 219.6 253.734 219.824C253.254 220.037 252.7 220.144 252.07 220.144ZM258.782 208.16V220H257.326V208.16H258.782ZM269.263 215.28C269.263 215.557 269.247 215.851 269.215 216.16H262.207C262.261 217.024 262.554 217.701 263.087 218.192C263.631 218.672 264.287 218.912 265.055 218.912C265.685 218.912 266.207 218.768 266.623 218.48C267.05 218.181 267.349 217.787 267.519 217.296H269.087C268.853 218.139 268.383 218.827 267.679 219.36C266.975 219.883 266.101 220.144 265.055 220.144C264.223 220.144 263.477 219.957 262.815 219.584C262.165 219.211 261.653 218.683 261.279 218C260.906 217.307 260.719 216.507 260.719 215.6C260.719 214.693 260.901 213.899 261.263 213.216C261.626 212.533 262.133 212.011 262.783 211.648C263.445 211.275 264.202 211.088 265.055 211.088C265.887 211.088 266.623 211.269 267.263 211.632C267.903 211.995 268.394 212.496 268.735 213.136C269.087 213.765 269.263 214.48 269.263 215.28ZM267.759 214.976C267.759 214.421 267.637 213.947 267.391 213.552C267.146 213.147 266.81 212.843 266.383 212.64C265.967 212.427 265.503 212.32 264.991 212.32C264.255 212.32 263.626 212.555 263.103 213.024C262.591 213.493 262.298 214.144 262.223 214.976H267.759ZM272.961 212.432V217.6C272.961 218.027 273.052 218.331 273.233 218.512C273.414 218.683 273.729 218.768 274.177 218.768H275.249V220H273.937C273.126 220 272.518 219.813 272.113 219.44C271.708 219.067 271.505 218.453 271.505 217.6V212.432H270.369V211.232H271.505V209.024H272.961V211.232H275.249V212.432H272.961ZM278.789 212.432V217.6C278.789 218.027 278.88 218.331 279.061 218.512C279.243 218.683 279.557 218.768 280.005 218.768H281.077V220H279.765C278.955 220 278.347 219.813 277.941 219.44C277.536 219.067 277.333 218.453 277.333 217.6V212.432H276.197V211.232H277.333V209.024H278.789V211.232H281.077V212.432H278.789ZM290.841 215.28C290.841 215.557 290.825 215.851 290.793 216.16H283.785C283.839 217.024 284.132 217.701 284.665 218.192C285.209 218.672 285.865 218.912 286.633 218.912C287.263 218.912 287.785 218.768 288.201 218.48C288.628 218.181 288.927 217.787 289.097 217.296H290.665C290.431 218.139 289.961 218.827 289.257 219.36C288.553 219.883 287.679 220.144 286.633 220.144C285.801 220.144 285.055 219.957 284.393 219.584C283.743 219.211 283.231 218.683 282.857 218C282.484 217.307 282.297 216.507 282.297 215.6C282.297 214.693 282.479 213.899 282.841 213.216C283.204 212.533 283.711 212.011 284.361 211.648C285.023 211.275 285.78 211.088 286.633 211.088C287.465 211.088 288.201 211.269 288.841 211.632C289.481 211.995 289.972 212.496 290.313 213.136C290.665 213.765 290.841 214.48 290.841 215.28ZM289.337 214.976C289.337 214.421 289.215 213.947 288.969 213.552C288.724 213.147 288.388 212.843 287.961 212.64C287.545 212.427 287.081 212.32 286.569 212.32C285.833 212.32 285.204 212.555 284.681 213.024C284.169 213.493 283.876 214.144 283.801 214.976H289.337ZM294.219 212.656C294.475 212.155 294.838 211.765 295.307 211.488C295.787 211.211 296.369 211.072 297.051 211.072V212.576H296.667C295.035 212.576 294.219 213.461 294.219 215.232V220H292.763V211.232H294.219V212.656ZM302.454 215.584C302.454 214.688 302.635 213.904 302.998 213.232C303.36 212.549 303.856 212.021 304.486 211.648C305.126 211.275 305.835 211.088 306.614 211.088C307.382 211.088 308.048 211.253 308.614 211.584C309.179 211.915 309.6 212.331 309.878 212.832V211.232H311.35V220H309.878V218.368C309.59 218.88 309.158 219.307 308.582 219.648C308.016 219.979 307.355 220.144 306.598 220.144C305.819 220.144 305.115 219.952 304.486 219.568C303.856 219.184 303.36 218.645 302.998 217.952C302.635 217.259 302.454 216.469 302.454 215.584ZM309.878 215.6C309.878 214.939 309.744 214.363 309.478 213.872C309.211 213.381 308.848 213.008 308.39 212.752C307.942 212.485 307.446 212.352 306.902 212.352C306.358 212.352 305.862 212.48 305.414 212.736C304.966 212.992 304.608 213.365 304.342 213.856C304.075 214.347 303.942 214.923 303.942 215.584C303.942 216.256 304.075 216.843 304.342 217.344C304.608 217.835 304.966 218.213 305.414 218.48C305.862 218.736 306.358 218.864 306.902 218.864C307.446 218.864 307.942 218.736 308.39 218.48C308.848 218.213 309.211 217.835 309.478 217.344C309.744 216.843 309.878 216.261 309.878 215.6ZM318.082 211.072C319.149 211.072 320.013 211.397 320.674 212.048C321.335 212.688 321.666 213.616 321.666 214.832V220H320.226V215.04C320.226 214.165 320.007 213.499 319.57 213.04C319.133 212.571 318.535 212.336 317.778 212.336C317.01 212.336 316.397 212.576 315.938 213.056C315.49 213.536 315.266 214.235 315.266 215.152V220H313.81V211.232H315.266V212.48C315.554 212.032 315.943 211.685 316.434 211.44C316.935 211.195 317.485 211.072 318.082 211.072ZM323.501 215.584C323.501 214.688 323.682 213.904 324.045 213.232C324.407 212.549 324.903 212.021 325.533 211.648C326.173 211.275 326.887 211.088 327.677 211.088C328.359 211.088 328.994 211.248 329.581 211.568C330.167 211.877 330.615 212.288 330.925 212.8V208.16H332.397V220H330.925V218.352C330.637 218.875 330.21 219.307 329.645 219.648C329.079 219.979 328.418 220.144 327.661 220.144C326.882 220.144 326.173 219.952 325.533 219.568C324.903 219.184 324.407 218.645 324.045 217.952C323.682 217.259 323.501 216.469 323.501 215.584ZM330.925 215.6C330.925 214.939 330.791 214.363 330.525 213.872C330.258 213.381 329.895 213.008 329.437 212.752C328.989 212.485 328.493 212.352 327.949 212.352C327.405 212.352 326.909 212.48 326.461 212.736C326.013 212.992 325.655 213.365 325.389 213.856C325.122 214.347 324.989 214.923 324.989 215.584C324.989 216.256 325.122 216.843 325.389 217.344C325.655 217.835 326.013 218.213 326.461 218.48C326.909 218.736 327.405 218.864 327.949 218.864C328.493 218.864 328.989 218.736 329.437 218.48C329.895 218.213 330.258 217.835 330.525 217.344C330.791 216.843 330.925 216.261 330.925 215.6ZM342.227 220.144C341.555 220.144 340.952 220.032 340.419 219.808C339.885 219.573 339.464 219.253 339.155 218.848C338.845 218.432 338.675 217.957 338.643 217.424H340.147C340.189 217.861 340.392 218.219 340.755 218.496C341.128 218.773 341.613 218.912 342.211 218.912C342.765 218.912 343.203 218.789 343.523 218.544C343.843 218.299 344.003 217.989 344.003 217.616C344.003 217.232 343.832 216.949 343.491 216.768C343.149 216.576 342.621 216.389 341.907 216.208C341.256 216.037 340.723 215.867 340.307 215.696C339.901 215.515 339.549 215.253 339.251 214.912C338.963 214.56 338.819 214.101 338.819 213.536C338.819 213.088 338.952 212.677 339.219 212.304C339.485 211.931 339.864 211.637 340.355 211.424C340.845 211.2 341.405 211.088 342.035 211.088C343.005 211.088 343.789 211.333 344.387 211.824C344.984 212.315 345.304 212.987 345.347 213.84H343.891C343.859 213.381 343.672 213.013 343.331 212.736C343 212.459 342.552 212.32 341.987 212.32C341.464 212.32 341.048 212.432 340.739 212.656C340.429 212.88 340.275 213.173 340.275 213.536C340.275 213.824 340.365 214.064 340.547 214.256C340.739 214.437 340.973 214.587 341.251 214.704C341.539 214.811 341.933 214.933 342.435 215.072C343.064 215.243 343.576 215.413 343.971 215.584C344.365 215.744 344.701 215.989 344.979 216.32C345.267 216.651 345.416 217.083 345.427 217.616C345.427 218.096 345.293 218.528 345.027 218.912C344.76 219.296 344.381 219.6 343.891 219.824C343.411 220.037 342.856 220.144 342.227 220.144ZM349.258 212.432V217.6C349.258 218.027 349.349 218.331 349.53 218.512C349.711 218.683 350.026 218.768 350.474 218.768H351.546V220H350.234C349.423 220 348.815 219.813 348.41 219.44C348.005 219.067 347.802 218.453 347.802 217.6V212.432H346.666V211.232H347.802V209.024H349.258V211.232H351.546V212.432H349.258ZM352.766 215.584C352.766 214.688 352.947 213.904 353.31 213.232C353.673 212.549 354.169 212.021 354.798 211.648C355.438 211.275 356.147 211.088 356.926 211.088C357.694 211.088 358.361 211.253 358.926 211.584C359.491 211.915 359.913 212.331 360.19 212.832V211.232H361.662V220H360.19V218.368C359.902 218.88 359.47 219.307 358.894 219.648C358.329 219.979 357.667 220.144 356.91 220.144C356.131 220.144 355.427 219.952 354.798 219.568C354.169 219.184 353.673 218.645 353.31 217.952C352.947 217.259 352.766 216.469 352.766 215.584ZM360.19 215.6C360.19 214.939 360.057 214.363 359.79 213.872C359.523 213.381 359.161 213.008 358.702 212.752C358.254 212.485 357.758 212.352 357.214 212.352C356.67 212.352 356.174 212.48 355.726 212.736C355.278 212.992 354.921 213.365 354.654 213.856C354.387 214.347 354.254 214.923 354.254 215.584C354.254 216.256 354.387 216.843 354.654 217.344C354.921 217.835 355.278 218.213 355.726 218.48C356.174 218.736 356.67 218.864 357.214 218.864C357.758 218.864 358.254 218.736 358.702 218.48C359.161 218.213 359.523 217.835 359.79 217.344C360.057 216.843 360.19 216.261 360.19 215.6ZM371.675 211.232L366.395 224.128H364.891L366.619 219.904L363.083 211.232H364.699L367.451 218.336L370.171 211.232H371.675ZM385.18 211.232V220H383.724V218.704C383.447 219.152 383.057 219.504 382.556 219.76C382.065 220.005 381.521 220.128 380.924 220.128C380.241 220.128 379.628 219.989 379.084 219.712C378.54 219.424 378.108 218.997 377.788 218.432C377.479 217.867 377.324 217.179 377.324 216.368V211.232H378.764V216.176C378.764 217.04 378.983 217.707 379.42 218.176C379.857 218.635 380.455 218.864 381.212 218.864C381.991 218.864 382.604 218.624 383.052 218.144C383.5 217.664 383.724 216.965 383.724 216.048V211.232H385.18ZM389.094 212.848C389.382 212.347 389.809 211.931 390.374 211.6C390.95 211.259 391.617 211.088 392.374 211.088C393.153 211.088 393.857 211.275 394.486 211.648C395.126 212.021 395.628 212.549 395.99 213.232C396.353 213.904 396.534 214.688 396.534 215.584C396.534 216.469 396.353 217.259 395.99 217.952C395.628 218.645 395.126 219.184 394.486 219.568C393.857 219.952 393.153 220.144 392.374 220.144C391.628 220.144 390.966 219.979 390.39 219.648C389.825 219.307 389.393 218.885 389.094 218.384V224.16H387.638V211.232H389.094V212.848ZM395.046 215.584C395.046 214.923 394.913 214.347 394.646 213.856C394.38 213.365 394.017 212.992 393.558 212.736C393.11 212.48 392.614 212.352 392.07 212.352C391.537 212.352 391.041 212.485 390.582 212.752C390.134 213.008 389.772 213.387 389.494 213.888C389.228 214.379 389.094 214.949 389.094 215.6C389.094 216.261 389.228 216.843 389.494 217.344C389.772 217.835 390.134 218.213 390.582 218.48C391.041 218.736 391.537 218.864 392.07 218.864C392.614 218.864 393.11 218.736 393.558 218.48C394.017 218.213 394.38 217.835 394.646 217.344C394.913 216.843 395.046 216.256 395.046 215.584ZM397.907 215.584C397.907 214.688 398.088 213.904 398.451 213.232C398.813 212.549 399.309 212.021 399.939 211.648C400.579 211.275 401.293 211.088 402.083 211.088C402.765 211.088 403.4 211.248 403.987 211.568C404.573 211.877 405.021 212.288 405.331 212.8V208.16H406.803V220H405.331V218.352C405.043 218.875 404.616 219.307 404.051 219.648C403.485 219.979 402.824 220.144 402.067 220.144C401.288 220.144 400.579 219.952 399.939 219.568C399.309 219.184 398.813 218.645 398.451 217.952C398.088 217.259 397.907 216.469 397.907 215.584ZM405.331 215.6C405.331 214.939 405.197 214.363 404.931 213.872C404.664 213.381 404.301 213.008 403.843 212.752C403.395 212.485 402.899 212.352 402.355 212.352C401.811 212.352 401.315 212.48 400.867 212.736C400.419 212.992 400.061 213.365 399.795 213.856C399.528 214.347 399.395 214.923 399.395 215.584C399.395 216.256 399.528 216.843 399.795 217.344C400.061 217.835 400.419 218.213 400.867 218.48C401.315 218.736 401.811 218.864 402.355 218.864C402.899 218.864 403.395 218.736 403.843 218.48C404.301 218.213 404.664 217.835 404.931 217.344C405.197 216.843 405.331 216.261 405.331 215.6ZM408.719 215.584C408.719 214.688 408.901 213.904 409.263 213.232C409.626 212.549 410.122 212.021 410.751 211.648C411.391 211.275 412.101 211.088 412.879 211.088C413.647 211.088 414.314 211.253 414.879 211.584C415.445 211.915 415.866 212.331 416.143 212.832V211.232H417.615V220H416.143V218.368C415.855 218.88 415.423 219.307 414.847 219.648C414.282 219.979 413.621 220.144 412.863 220.144C412.085 220.144 411.381 219.952 410.751 219.568C410.122 219.184 409.626 218.645 409.263 217.952C408.901 217.259 408.719 216.469 408.719 215.584ZM416.143 215.6C416.143 214.939 416.01 214.363 415.743 213.872C415.477 213.381 415.114 213.008 414.655 212.752C414.207 212.485 413.711 212.352 413.167 212.352C412.623 212.352 412.127 212.48 411.679 212.736C411.231 212.992 410.874 213.365 410.607 213.856C410.341 214.347 410.207 214.923 410.207 215.584C410.207 216.256 410.341 216.843 410.607 217.344C410.874 217.835 411.231 218.213 411.679 218.48C412.127 218.736 412.623 218.864 413.167 218.864C413.711 218.864 414.207 218.736 414.655 218.48C415.114 218.213 415.477 217.835 415.743 217.344C416.01 216.843 416.143 216.261 416.143 215.6ZM421.852 212.432V217.6C421.852 218.027 421.942 218.331 422.124 218.512C422.305 218.683 422.62 218.768 423.068 218.768H424.14V220H422.828C422.017 220 421.409 219.813 421.004 219.44C420.598 219.067 420.396 218.453 420.396 217.6V212.432H419.26V211.232H420.396V209.024H421.852V211.232H424.14V212.432H421.852ZM433.904 215.28C433.904 215.557 433.888 215.851 433.856 216.16H426.848C426.901 217.024 427.195 217.701 427.728 218.192C428.272 218.672 428.928 218.912 429.696 218.912C430.325 218.912 430.848 218.768 431.264 218.48C431.691 218.181 431.989 217.787 432.16 217.296H433.728C433.493 218.139 433.024 218.827 432.32 219.36C431.616 219.883 430.741 220.144 429.696 220.144C428.864 220.144 428.117 219.957 427.456 219.584C426.805 219.211 426.293 218.683 425.92 218C425.547 217.307 425.36 216.507 425.36 215.6C425.36 214.693 425.541 213.899 425.904 213.216C426.267 212.533 426.773 212.011 427.424 211.648C428.085 211.275 428.843 211.088 429.696 211.088C430.528 211.088 431.264 211.269 431.904 211.632C432.544 211.995 433.035 212.496 433.376 213.136C433.728 213.765 433.904 214.48 433.904 215.28ZM432.4 214.976C432.4 214.421 432.277 213.947 432.032 213.552C431.787 213.147 431.451 212.843 431.024 212.64C430.608 212.427 430.144 212.32 429.632 212.32C428.896 212.32 428.267 212.555 427.744 213.024C427.232 213.493 426.939 214.144 426.864 214.976H432.4ZM435.282 215.584C435.282 214.688 435.463 213.904 435.826 213.232C436.188 212.549 436.684 212.021 437.314 211.648C437.954 211.275 438.668 211.088 439.458 211.088C440.14 211.088 440.775 211.248 441.362 211.568C441.948 211.877 442.396 212.288 442.706 212.8V208.16H444.178V220H442.706V218.352C442.418 218.875 441.991 219.307 441.426 219.648C440.86 219.979 440.199 220.144 439.442 220.144C438.663 220.144 437.954 219.952 437.314 219.568C436.684 219.184 436.188 218.645 435.826 217.952C435.463 217.259 435.282 216.469 435.282 215.584ZM442.706 215.6C442.706 214.939 442.572 214.363 442.306 213.872C442.039 213.381 441.676 213.008 441.218 212.752C440.77 212.485 440.274 212.352 439.73 212.352C439.186 212.352 438.69 212.48 438.242 212.736C437.794 212.992 437.436 213.365 437.17 213.856C436.903 214.347 436.77 214.923 436.77 215.584C436.77 216.256 436.903 216.843 437.17 217.344C437.436 217.835 437.794 218.213 438.242 218.48C438.69 218.736 439.186 218.864 439.73 218.864C440.274 218.864 440.77 218.736 441.218 218.48C441.676 218.213 442.039 217.835 442.306 217.344C442.572 216.843 442.706 216.261 442.706 215.6ZM447.102 220.096C446.825 220.096 446.59 220 446.398 219.808C446.206 219.616 446.11 219.381 446.11 219.104C446.11 218.827 446.206 218.592 446.398 218.4C446.59 218.208 446.825 218.112 447.102 218.112C447.369 218.112 447.593 218.208 447.774 218.4C447.966 218.592 448.062 218.827 448.062 219.104C448.062 219.381 447.966 219.616 447.774 219.808C447.593 220 447.369 220.096 447.102 220.096Z" fill="white"/>
<defs>
<clipPath id="clip0_2_373">
<rect width="219" height="439" fill="white" transform="translate(670 1)"/>
</clipPath>
</defs>
</svg>
